<?xml version="1.0" encoding="UTF-8"?>
<svg width="192" height="192" version="1.1" viewBox="0 0 192 192" xmlns="http://www.w3.org/2000/svg" xmlns:cc="http://creativecommons.org/ns#" xmlns:dc="http://purl.org/dc/elements/1.1/" xmlns:rdf="http://www.w3.org/1999/02/22-rdf-syntax-ns#" xmlns:xlink="http://www.w3.org/1999/xlink">
 <defs>
  <radialGradient id="radialGradient1633" cx="0" cy="0" r="96" gradientTransform="matrix(0,2,-2,0,0,0)" gradientUnits="userSpaceOnUse">
   <stop stop-color="#fff" stop-opacity=".1" offset="0"/>
   <stop stop-color="#fff" stop-opacity="0" offset="1"/>
  </radialGradient>
  <filter id="filter1798" color-interpolation-filters="sRGB">
   <feFlood flood-color="rgb(33,33,33)" flood-opacity=".2" result="flood"/>
   <feComposite in="flood" in2="SourceGraphic" operator="in" result="composite1"/>
   <feGaussianBlur in="composite1" result="blur" stdDeviation="4"/>
   <feOffset dx="4" dy="4" result="offset"/>
   <feComposite in="offset" in2="offset" operator="atop" result="composite2"/>
  </filter>
 </defs>
 <metadata>
  <rdf:RDF>
   <cc:Work rdf:about="">
    <dc:format>image/svg+xml</dc:format>
    <dc:type rdf:resource="http://purl.org/dc/dcmitype/StillImage"/>
    <dc:title/>
   </cc:Work>
  </rdf:RDF>
 </metadata>
 <g>
  <rect width="192" height="192" rx="12" ry="12" fill="#2196f3"/>
 </g>
 <g>
  <path d="m83.82 40.727a37.968 43.023 0 0 0-26.088 11.784 37.968 43.023 0 0 0-37.732 43.022 37.968 43.023 0 0 0 37.968 43.023 37.968 43.023 0 0 0 7.1621-0.77255 37.968 43.023 0 0 0 27.609 13.489 37.968 43.023 0 0 0 26.523-12.238 37.968 43.023 0 0 0 14.77 3.3888 37.968 43.023 0 0 0 37.968-43.023 37.968 43.023 0 0 0-33.628-42.738 37.968 43.023 0 0 0-28.814-15.007 37.968 43.023 0 0 0-11.723 2.1017 37.968 43.023 0 0 0-13.997-3.0295 37.968 43.023 0 0 0-0.0186 0z" fill="#bdbdbd" filter="url(#filter1798)"/>
 </g>
 <path d="m83.82 40.727a37.968 43.023 0 0 0-26.088 11.784 37.968 43.023 0 0 0-37.732 43.022 37.968 43.023 0 0 0 37.968 43.023 37.968 43.023 0 0 0 7.1621-0.77255 37.968 43.023 0 0 0 27.609 13.489 37.968 43.023 0 0 0 26.523-12.238 37.968 43.023 0 0 0 14.77 3.3888 37.968 43.023 0 0 0 37.968-43.023 37.968 43.023 0 0 0-33.628-42.738 37.968 43.023 0 0 0-28.814-15.007 37.968 43.023 0 0 0-11.723 2.1017 37.968 43.023 0 0 0-13.997-3.0295 37.968 43.023 0 0 0-0.0186 0z" fill="#bdbdbd"/>
 <g fill="#fff" style="mix-blend-mode:normal">
  <path d="m12 0c-6.648 0-12 5.352-12 12v1c0-6.648 5.352-12 12-12h168c6.648 0 12 5.352 12 12v-1c0-6.648-5.352-12-12-12z" opacity=".2"/>
  <path d="m83.82 40.727a37.968 43.023 0 0 0-26.088 11.785 37.968 43.023 0 0 0-37.732 43.021 37.968 43.023 0 0 0 0.0039 0.4707 37.968 43.023 0 0 1 37.729-42.492 37.968 43.023 0 0 1 26.088-11.785 37.968 43.023 0 0 1 0.01758 0 37.968 43.023 0 0 1 13.998 3.0293 37.968 43.023 0 0 1 11.723-2.1016 37.968 43.023 0 0 1 28.814 15.008 37.968 43.023 0 0 1 33.623 42.17 37.968 43.023 0 0 0 4e-3 -0.43164 37.968 43.023 0 0 0-33.627-42.738 37.968 43.023 0 0 0-28.814-15.008 37.968 43.023 0 0 0-11.723 2.1016 37.968 43.023 0 0 0-13.998-3.0293 37.968 43.023 0 0 0-0.01758 0z" opacity=".2"/>
 </g>
 <g>
  <path d="m0 179v1c0 6.648 5.352 12 12 12h168c6.648 0 12-5.352 12-12v-1c0 6.648-5.352 12-12 12h-168c-6.648 0-12-5.352-12-12z" fill="#19237e" opacity=".2"/>
  <path d="m20.004 95.004a37.968 43.023 0 0 0-0.003906 0.5293 37.968 43.023 0 0 0 37.969 43.023 37.968 43.023 0 0 0 7.1621-0.77344 37.968 43.023 0 0 0 27.609 13.49 37.968 43.023 0 0 0 26.521-12.238 37.968 43.023 0 0 0 14.77 3.3887 37.968 43.023 0 0 0 37.969-43.023 37.968 43.023 0 0 0-0.00391-0.43945 37.968 43.023 0 0 1-37.965 42.463 37.968 43.023 0 0 1-14.77-3.3887 37.968 43.023 0 0 1-26.521 12.236 37.968 43.023 0 0 1-27.609-13.488 37.968 43.023 0 0 1-7.1621 0.77344 37.968 43.023 0 0 1-37.965-42.553z" fill="#212121" opacity=".1"/>
 </g>
 <g>
  <rect width="192" height="192" rx="12" ry="12" fill="url(#radialGradient1633)"/>
 </g>
</svg>
